<svg xmlns="http://www.w3.org/2000/svg" viewBox="0 0 453.99 453.99"><defs><style>.cls-1,.cls-3{fill:#f1f2f2;}.cls-1,.cls-2{stroke:#231f20;stroke-miterlimit:10;}.cls-2{fill:#be1e2d;}</style></defs><g id="Layer_1" data-name="Layer 1"><circle class="cls-1" cx="226.99" cy="226.99" r="226.49"/><circle class="cls-2" cx="226.99" cy="226.99" r="213.7"/><path class="cls-3" d="M210.83,159.5c-1.69.81-.46,3.9-2.16,8-2,4.89-6.89,7.95-10.5,9-5.9,1.72-11.66-1-16.67-4-24.57-14.82-42.85-44.57-48.59-67-.88-3.45-2-8.75.09-14.48,3.56-9.84,13.84-13.6,15-14,8.31-2.89,15.56-.67,19.35.53a37.07,37.07,0,0,1,14,8.14A34.74,34.74,0,0,1,185,75.47a35.67,35.67,0,0,1,10.22-11.64c3.7-2.79,6.72-5.07,11.5-6.33,2.67-.7,10.34-2.26,17.83,1.67a24.27,24.27,0,0,1,9,8.5c6.36,9.59,5.36,18,7.17,48,0,0,.59,9.86-1.84,35.5a15.63,15.63,0,0,1-3.41,9c-3.14,3.64-8.87,6.08-14,4.92C215.51,163.75,213.08,158.43,210.83,159.5Z" transform="translate(-21.31 -25.74)"/><path class="cls-3" d="M285.59,157.12c-1.79-.58-3,2.52-7.07,4.32-4.84,2.16-10.46,1.05-13.81-.67-5.47-2.81-7.8-8.73-9.36-14.36-7.67-27.65-.51-61.83,10.75-82.08,1.73-3.11,4.57-7.72,10-10.46,9.35-4.7,19.4-.37,20.52.14,6.82,3.07,10.26,8.37,13.7,13.68a53,53,0,0,1,7,16.31,21,21,0,0,1,7.2-5.72c5.37-2.55,10.42-2,15.43-1.43,4.61.52,8.37.94,12.7,3.3,2.42,1.33,9.07,5.46,11.81,13.47a24.2,24.2,0,0,1,.7,12.36c-2,11.34-8.48,16.76-27.78,39.8,0,0-6.34,7.57-25.72,24.53a15.65,15.65,0,0,1-8.65,4.17c-4.78.49-10.62-1.68-13.59-6.08C286.07,163.42,288,157.89,285.59,157.12Z" transform="translate(-21.31 -25.74)"/><path class="cls-3" d="M342.27,214.59c-.77-1.71-3.89-.53-8-2.3-4.85-2.12-7.82-7-8.81-10.66-1.62-5.93,1.18-11.64,4.29-16.59C345,160.73,375.1,143,397.65,137.63c3.46-.82,8.78-1.83,14.47.34,9.78,3.73,13.36,14.08,13.74,15.24,2.33,7.11.74,13.22-.87,19.35a52.66,52.66,0,0,1-7.33,16.15,21.14,21.14,0,0,1,9.08,1.47c5.51,2.24,8.5,6.35,11.46,10.42,2.73,3.76,4.95,6.82,6.13,11.61.66,2.68,2.08,10.38-2,17.8a24.18,24.18,0,0,1-8.65,8.85c-9.71,6.2-18.1,5-48.12,6.33,0,0-9.87.42-35.47-2.45a15.58,15.58,0,0,1-8.91-3.58c-3.58-3.2-5.92-9-4.67-14.13C337.94,219.2,343.3,216.86,342.27,214.59Z" transform="translate(-21.31 -25.74)"/><path class="cls-3" d="M343.34,289.38c.61-1.78-2.46-3.06-4.2-7.15-2.07-4.87-.86-10.47.92-13.79,2.9-5.42,8.86-7.65,14.52-9.11,27.79-7.18,61.83.57,81.88,12.19,3.08,1.78,7.64,4.71,10.28,10.19,4.54,9.43,0,19.4-.49,20.51-3.19,6.77-8.55,10.11-13.92,13.46a52.51,52.51,0,0,1-16.43,6.7,21.14,21.14,0,0,1,5.59,7.31c2.46,5.41,1.8,10.45,1.16,15.44-.6,4.6-1.08,8.36-3.52,12.65-1.37,2.4-5.62,9-13.67,11.57a24.1,24.1,0,0,1-12.37.48c-11.31-2.16-16.62-8.77-39.31-28.46,0,0-7.46-6.48-24.08-26.16a15.6,15.6,0,0,1-4-8.71c-.4-4.79,1.87-10.6,6.32-13.49C337,289.75,342.53,291.74,343.34,289.38Z" transform="translate(-21.31 -25.74)"/><path class="cls-3" d="M285,345.73c1.7-.79.5-3.9,2.23-8,2.07-4.88,6.95-7.89,10.58-8.91,5.91-1.67,11.65,1.07,16.63,4.13,24.45,15,42.48,44.93,48,67.43.85,3.45,1.91,8.77-.21,14.48-3.65,9.81-14,13.48-15.12,13.87-8.41,2.85-15.7.51-19.35-.69a36.24,36.24,0,0,1-13.15-7.73,44.8,44.8,0,0,1-4.46,9.64,42.64,42.64,0,0,1-10.31,11.55c-3.73,2.77-6.77,5-11.56,6.24-2.67.68-10.36,2.18-17.82-1.82a24.16,24.16,0,0,1-8.92-8.57c-6.29-9.64-5.21-18.05-6.77-48.06,0,0-.51-9.86,2.13-35.48a15.56,15.56,0,0,1,3.49-8.94c3.17-3.61,8.92-6,14.09-4.81C280.39,341.44,282.77,346.78,285,345.73Z" transform="translate(-21.31 -25.74)"/><path class="cls-3" d="M210.25,347.48c1.79.6,3-2.49,7.11-4.26,4.86-2.12,10.47-1,13.81.79,5.44,2.85,7.72,8.79,9.24,14.44,7.43,27.71,0,61.83-11.44,82-1.76,3.1-4.64,7.69-10.1,10.38-9.39,4.63-19.4.2-20.52-.31-6.79-3.12-10.18-8.45-13.58-13.79a52.7,52.7,0,0,1-6.85-16.37,21.14,21.14,0,0,1-7.26,5.65c-5.38,2.51-10.43,1.91-15.43,1.31-4.6-.56-8.36-1-12.68-3.41-2.41-1.34-9-5.54-11.7-13.56a24.28,24.28,0,0,1-.59-12.37c2.06-11.32,8.62-16.69,28.11-39.56,0,0,6.4-7.52,25.93-24.32A15.64,15.64,0,0,1,193,330c4.78-.44,10.61,1.77,13.54,6.19C209.83,341.18,207.89,346.69,210.25,347.48Z" transform="translate(-21.31 -25.74)"/><path class="cls-3" d="M154.05,289.54c.77,1.72,3.89.57,7.94,2.37,4.84,2.16,7.77,7.09,8.73,10.73,1.56,5.94-1.28,11.63-4.43,16.56C150.84,343.38,120.63,360.89,98,366c-3.47.79-8.8,1.75-14.48-.46-9.74-3.82-13.23-14.19-13.6-15.36-2.28-7.13-.63-13.22,1-19.33a52.79,52.79,0,0,1,7.47-16.1,21.18,21.18,0,0,1-9.07-1.54C63.9,311,60.94,306.83,58,302.73c-2.69-3.78-4.89-6.85-6-11.66-.64-2.69-2-10.4,2.13-17.79a24.19,24.19,0,0,1,8.73-8.77c9.75-6.11,18.14-4.89,48.17-5.93,0,0,9.87-.34,35.44,2.75a15.66,15.66,0,0,1,8.88,3.65c3.55,3.23,5.85,9,4.56,14.17C158.42,285,153,287.26,154.05,289.54Z" transform="translate(-21.31 -25.74)"/><path class="cls-3" d="M153.61,214.75c-.63,1.77,2.43,3.08,4.14,7.18,2,4.89.77,10.48-1,13.79-2.94,5.39-8.92,7.57-14.59,9-27.84,7-61.82-1.09-81.77-12.87-3.07-1.81-7.61-4.77-10.2-10.28-4.46-9.47.13-19.4.66-20.51,3.25-6.74,8.63-10,14-13.34a52.62,52.62,0,0,1,16.48-6.56,21.09,21.09,0,0,1-5.53-7.35c-2.41-5.43-1.72-10.46-1-15.46.63-4.59,1.15-8.34,3.63-12.61,1.38-2.39,5.69-8.93,13.76-11.46a24.28,24.28,0,0,1,12.38-.38c11.28,2.26,16.54,8.91,39.06,28.8,0,0,7.41,6.53,23.86,26.35a15.56,15.56,0,0,1,3.95,8.75c.36,4.79-1.95,10.58-6.43,13.43C159.92,214.43,154.44,212.4,153.61,214.75Z" transform="translate(-21.31 -25.74)"/><circle class="cls-3" cx="226.9" cy="226.94" r="73.33"/></g><g id="Triangles"><path class="cls-3" d="M211.67,193.83c-5.35-4.05-4.11-14-3.17-21.58a51.73,51.73,0,0,1,2.92-11.83,63.93,63.93,0,0,1,10.66,7.08c6.87,5.64,14.61,12,13.42,18C234,193.1,218.47,199,211.67,193.83Z" transform="translate(-21.31 -25.74)"/><path class="cls-3" d="M259.17,185.17c-1.18-6.51,7.16-13.25,15.41-19.92a75.9,75.9,0,0,1,10.59-7.17,65.68,65.68,0,0,1,2.16,9.25c1.45,9.1,3.62,22.83-3.08,27.5C277,199.9,260.65,193.35,259.17,185.17Z" transform="translate(-21.31 -25.74)"/><path class="cls-3" d="M306.42,210c2.2-2.21,6.48-1.54,15-.2a89.4,89.4,0,0,1,19.12,5.2,59,59,0,0,1-8.33,14.25c-5.05,6.38-8.76,11.05-13,10.92C309.75,239.86,300.44,216,306.42,210Z" transform="translate(-21.31 -25.74)"/><path class="cls-3" d="M320.14,267.11c4.64-.38,8.89,4.57,14,10.56a57.79,57.79,0,0,1,7.5,11.16,98.41,98.41,0,0,1-15,3c-10,1.21-14.95,1.81-17.23-.77C304.68,285.64,311.8,267.81,320.14,267.11Z" transform="translate(-21.31 -25.74)"/><path class="cls-3" d="M285.42,314.5c2.92,2.71,2.4,8.12,1.58,16.5a65.41,65.41,0,0,1-2.83,13.67c-2.85-1.75-6.68-4.24-11-7.5-8.94-6.75-13.42-10.12-13.25-13.34C260.28,316.64,279.34,308.87,285.42,314.5Z" transform="translate(-21.31 -25.74)"/><path class="cls-3" d="M234.17,323.33c.77,6.37-7.78,12.57-12.5,16a45.22,45.22,0,0,1-10.5,5.67,39.28,39.28,0,0,1-4.67-14.5c-.61-5.29-1.57-13.72,2.89-17.27C216.08,307.9,233.14,314.93,234.17,323.33Z" transform="translate(-21.31 -25.74)"/><path class="cls-3" d="M189,290.58c-4.7,6.79-21.64,2.18-23.5,1.67a41.38,41.38,0,0,1-9.33-3.83,42.45,42.45,0,0,1,4.54-8.75c3-4.39,9.13-13.46,16-13C185.56,267.26,193.64,283.89,189,290.58Z" transform="translate(-21.31 -25.74)"/><path class="cls-3" d="M177.83,240.17c-4.24.43-8.21-4.46-14.75-12.5a86.7,86.7,0,0,1-8.5-12.59,76.78,76.78,0,0,1,9.79-2.06c10.25-1.47,19.19-2.75,22.88,1.56C192.82,221.1,185.55,239.38,177.83,240.17Z" transform="translate(-21.31 -25.74)"/></g></svg>